# xmcd
#
# Track frame offsets: 
#        150
#        9867
#        23534
#        37670
#        54306
#        69569
#        77747
#        92817
#        107462
#        124067
#        137246
#        152996
#        165561
#        179902
#        195857
#
# Disc length: 2824 seconds
#
# Revision: 1
# Processed by: cddbd v1.5.2PL0 Copyright (c) Steve Scherf et al.
# Submitted via: ExactAudioCopy v1.0b3
#
DISCID=b20b060f
DTITLE=Rasmentalism - Za Młodzi Na Heroda
DYEAR=2013
DGENRE=Rap
TTITLE0=Dobra muzyka
TTITLE1=Niebomby feat. Małpa
TTITLE2=9 żyć
TTITLE3=Gdzie jest M? feat. Spinache, Ment XXL
TTITLE4=Raz i dwa feat. DJ Panda
TTITLE5=S.O.S. skit
TTITLE6=STU feat. VNM
TTITLE7=Perwoll Vanish feat. DJ Ike
TTITLE8=Buty z betonu feat. Eldo
TTITLE9=Znowu sieka
TTITLE10=Umarł król, niech żyje
TTITLE11=Nowe kino
TTITLE12=Drogowskazy feat. Flirtini
TTITLE13=OFF
TTITLE14=Ładne życie
EXTD=
EXTT0=
EXTT1=
EXTT2=
EXTT3=
EXTT4=
EXTT5=
EXTT6=
EXTT7=
EXTT8=
EXTT9=
EXTT10=
EXTT11=
EXTT12=
EXTT13=
EXTT14=
PLAYORDER=
